<svg xmlns="http://www.w3.org/2000/svg" viewBox="0 0 100 100">
  <!-- Круговая стрелка -->
  <path d="M50 10 A40 40 0 1 1 15 65" fill="none" stroke="#1a3a6e" stroke-width="6" stroke-linecap="round"/>
  <path d="M85 65 A40 40 0 0 1 50 90" fill="none" stroke="#4a90d9" stroke-width="6" stroke-linecap="round"/>
  
  <!-- Иконка документа (верх) -->
  <rect x="38" y="15" width="24" height="28" rx="3" fill="none" stroke="#1a3a6e" stroke-width="2.5"/>
  <line x1="43" y1="23" x2="57" y2="23" stroke="#1a3a6e" stroke-width="2"/>
  <line x1="43" y1="29" x2="57" y2="29" stroke="#1a3a6e" stroke-width="2"/>
  <line x1="43" y1="35" x2="52" y2="35" stroke="#1a3a6e" stroke-width="2"/>
  
  <!-- Иконка здания (центр справа) -->
  <rect x="62" y="42" width="22" height="26" rx="2" fill="none" stroke="#1a3a6e" stroke-width="2.5"/>
  <rect x="66" y="47" width="5" height="5" fill="#4a90d9"/>
  <rect x="75" y="47" width="5" height="5" fill="#4a90d9"/>
  <rect x="66" y="56" width="5" height="5" fill="#4a90d9"/>
  <rect x="75" y="56" width="5" height="5" fill="#4a90d9"/>
  
  <!-- Иконка здания с управлением (низ) -->
  <rect x="30" y="58" width="22" height="26" rx="2" fill="none" stroke="#1a3a6e" stroke-width="2.5"/>
  <rect x="34" y="63" width="5" height="5" fill="#4a90d9"/>
  <rect x="43" y="63" width="5" height="5" fill="#4a90d9"/>
  <rect x="34" y="72" width="5" height="5" fill="#4a90d9"/>
  <rect x="43" y="72" width="5" height="5" fill="#4a90d9"/>
  <!-- Стрелки управления -->
  <path d="M41 55 C41 52 35 52 35 55" fill="none" stroke="#4a90d9" stroke-width="2" stroke-linecap="round"/>
  <path d="M47 55 C47 52 41 52 41 55" fill="none" stroke="#4a90d9" stroke-width="2" stroke-linecap="round"/>
</svg>
